<?xml version="1.0" encoding="UTF-8"?> <!-- Generator: Adobe Illustrator 24.2.3, SVG Export Plug-In . SVG Version: 6.00 Build 0) --> <svg xmlns="http://www.w3.org/2000/svg" xmlns:xlink="http://www.w3.org/1999/xlink" version="1.1" id="Capa_1" x="0px" y="0px" viewBox="0 0 150 49.74" style="enable-background:new 0 0 150 49.74;" xml:space="preserve"> <style type="text/css"> .st0{fill-rule:evenodd;clip-rule:evenodd;fill:#EB0029;} </style> <path class="st0" d="M131.06,18.11v2.73h-5.1v10.54h-3.1V20.91h-5.1v-2.8H131.06z M146.22,18.09v2.68h-10.61v2.8h8.41v2.31h-8.41 v2.66h10.61l0.01,2.84h-13.52V18.09H146.22z M70.88,23.08v8.3h-2.83V18.11h2.69l9.93,8.61v-8.61h2.55l0,13.26h-2.56 C80.65,31.32,70.88,23.08,70.88,23.08L70.88,23.08z M50.11,27.59v-0.41c0-1.08-0.81-2.33-0.81-2.35c0-0.15,0.83-0.83,0.83-2.17 v-0.77c0-2.6-2.53-3.8-3.35-3.8H35.04l0,13.31h12.2c0.43-0.03,0.53-0.15,1.17-0.49c0.49-0.26,1.7-1.46,1.7-2.74L50.11,27.59 L50.11,27.59z M47.09,27.8c-0.02,0.46-0.21,0.97-0.67,0.99c-0.57,0.02-8.45-0.01-8.7-0.01v-2.69c0,0,8.37-0.02,8.8,0.01 c0.36,0.02,0.57,0.41,0.58,0.94l0.01,0.56L47.09,27.8L47.09,27.8z M47.11,22.27l-0.01,0.39c0,0.46-0.21,0.97-0.67,0.99 c-0.58,0.02-8.45-0.01-8.7-0.01v-2.69c0,0,8.37-0.02,8.8,0.01c0.36,0.02,0.58,0.41,0.58,0.94v0.38L47.11,22.27L47.11,22.27z M60.89,25.62h-4.34l2.2-4.01L60.89,25.62L60.89,25.62z M59.71,18.11h-2.14l-7.25,13.26h2.87l1.83-3.12h7.1l1.82,3.12h2.85 L59.71,18.11L59.71,18.11z M98.32,24.62c0,2.43-2.3,3.64-3.17,3.64h-4.82c-0.69,0-3.24-0.65-3.24-3.78c0-2.43,2.57-3.64,3.31-3.64 h4.69C96.19,20.84,98.32,22.32,98.32,24.62L98.32,24.62L98.32,24.62z M101.29,24.58l-0.01-0.31c-0.06-3.13-3.1-6.18-5.38-6.18h-6.13 c-3.57,0-5.8,3.94-5.8,5.9v1.89c0.17,3.85,3.7,5.39,4.9,5.53c0.85,0.09,7.24,0,7.24,0c0.58-0.03,4.55-0.9,5.17-5.74L101.29,24.58 L101.29,24.58z M114.23,22.15c0,0.66-0.26,1.26-0.84,1.36c-0.29,0-8.52,0.01-8.6-0.01l0.01-2.61h8.34 C113.85,20.89,114.23,21.51,114.23,22.15L114.23,22.15z M116.72,21.61c-0.1-2.13-2.16-3.5-4.34-3.5h-10.34v13.26h2.83v-5.5h4.27 c0.23,0,4.18,5.5,4.18,5.5h3.4l-4.07-5.36c0.22,0.02,1.05-0.03,1.05-0.03c1.62-0.03,3.01-0.75,3.01-3.11 C116.72,22.74,116.73,21.79,116.72,21.61L116.72,21.61z M15.34,22.73c-5.32-0.56-9.21-2.27-9.21-4.3c0-2.48,5.81-4.49,12.99-4.49 s12.99,2.01,12.99,4.49c0,2.48-5.81,4.49-12.99,4.49c-0.39,0-0.77-0.01-1.15-0.02v-7.45L15.34,22.73z M15,23.83l-3.05,8.77 c-5.26-0.57-9.23-2.27-9.23-4.28C2.73,25.91,8.1,23.94,15,23.83z M17.96,23.9c6.1,0.37,10.74,2.21,10.74,4.42s-4.64,4.04-10.74,4.41 V23.9z"></path> </svg> 