<svg xmlns="http://www.w3.org/2000/svg" xmlns:xlink="http://www.w3.org/1999/xlink" id="Capa_1" data-name="Capa 1" viewBox="0 0 130.1 130"><defs><style>.cls-1{fill:url(#Degradado_sin_nombre_3);}.cls-2{fill:url(#Degradado_sin_nombre_2);}.cls-3{fill:#fff;}</style><radialGradient id="Degradado_sin_nombre_3" cx="-112.75" cy="58.36" r="65" gradientTransform="translate(-73.28 -83.69) rotate(-90) scale(1.98 1.84)" gradientUnits="userSpaceOnUse"><stop offset="0" stop-color="#fd5"></stop><stop offset="0.1" stop-color="#fd5"></stop><stop offset="0.5" stop-color="#ff543e"></stop><stop offset="1" stop-color="#c837ab"></stop></radialGradient><radialGradient id="Degradado_sin_nombre_2" cx="-355.23" cy="449.32" r="65" gradientTransform="matrix(0.17, 0.87, -3.58, 0.72, 1649.19, -4.5)" gradientUnits="userSpaceOnUse"><stop offset="0" stop-color="#3771c8"></stop><stop offset="0.13" stop-color="#3771c8"></stop><stop offset="1" stop-color="#60f" stop-opacity="0"></stop></radialGradient></defs><path id="path22" class="cls-1" d="M64.81-.21c-27.1,0-35.1,0-36.6.2-5.6.5-9,1.3-12.8,3.2a25,25,0,0,0-7.5,5.5,27.59,27.59,0,0,0-7.5,15.8c-.4,3-.6,3.6-.6,19.1v21.2c0,27.1,0,35,.2,36.6.5,5.4,1.3,8.8,3.1,12.6a27.36,27.36,0,0,0,17.8,14.5,40.63,40.63,0,0,0,9.4,1.2c1.6.1,18,.1,34.4.1s32.8,0,34.4-.1a40.08,40.08,0,0,0,9.8-1.3,27.54,27.54,0,0,0,17.8-14.5,31.3,31.3,0,0,0,3.1-12.3c.1-1.1.1-19,.1-36.8s0-35.7-.1-36.8a31.81,31.81,0,0,0-3.1-12.4,26.28,26.28,0,0,0-5.6-7.6,28.21,28.21,0,0,0-15.8-7.5c-3-.4-3.6-.6-19.2-.6Z" transform="translate(0.19 0.21)"></path><path id="path24" class="cls-2" d="M64.81-.21c-27.1,0-35.1,0-36.6.2-5.6.5-9,1.3-12.8,3.2a25,25,0,0,0-7.5,5.5,27.59,27.59,0,0,0-7.5,15.8c-.4,3-.6,3.6-.6,19.1v21.2c0,27.1,0,35,.2,36.6.5,5.4,1.3,8.8,3.1,12.6a27.36,27.36,0,0,0,17.8,14.5,40.63,40.63,0,0,0,9.4,1.2c1.6.1,18,.1,34.4.1s32.8,0,34.4-.1a40.08,40.08,0,0,0,9.8-1.3,27.54,27.54,0,0,0,17.8-14.5,31.3,31.3,0,0,0,3.1-12.3c.1-1.1.1-19,.1-36.8s0-35.7-.1-36.8a31.81,31.81,0,0,0-3.1-12.4,26.28,26.28,0,0,0-5.6-7.6,28.21,28.21,0,0,0-15.8-7.5c-3-.4-3.6-.6-19.2-.6Z" transform="translate(0.19 0.21)"></path><path id="path26" class="cls-3" d="M64.81,16.79c-13,0-14.7.1-19.8.3a34.75,34.75,0,0,0-11.7,2.2,23.87,23.87,0,0,0-8.5,5.5,22.59,22.59,0,0,0-5.5,8.5A34.24,34.24,0,0,0,17.11,45c-.2,5.1-.3,6.8-.3,19.8s.1,14.7.3,19.8a34.75,34.75,0,0,0,2.2,11.7,23.87,23.87,0,0,0,5.5,8.5,22.59,22.59,0,0,0,8.5,5.5,34.24,34.24,0,0,0,11.7,2.2c5.1.2,6.8.3,19.8.3s14.7-.1,19.8-.3a34.75,34.75,0,0,0,11.7-2.2,23.87,23.87,0,0,0,8.5-5.5,22.59,22.59,0,0,0,5.5-8.5,34.24,34.24,0,0,0,2.2-11.7c.2-5.1.3-6.8.3-19.8s-.1-14.7-.3-19.8a37.43,37.43,0,0,0-2.2-11.7,23.87,23.87,0,0,0-5.5-8.5,22.59,22.59,0,0,0-8.5-5.5,34.24,34.24,0,0,0-11.7-2.2c-5.1-.2-6.8-.3-19.8-.3Zm-4.3,8.7h4.3c12.8,0,14.3,0,19.4.3a24.74,24.74,0,0,1,8.9,1.7,16.08,16.08,0,0,1,9.1,9.1,27.22,27.22,0,0,1,1.7,8.9c.2,5.1.3,6.6.3,19.4s0,14.3-.3,19.4a24.74,24.74,0,0,1-1.7,8.9,16.08,16.08,0,0,1-9.1,9.1,27.22,27.22,0,0,1-8.9,1.7c-5.1.2-6.6.3-19.4.3s-14.3,0-19.4-.3a24.74,24.74,0,0,1-8.9-1.7,16.08,16.08,0,0,1-9.1-9.1,27.22,27.22,0,0,1-1.7-8.9c-.2-5.1-.3-6.6-.3-19.4s0-14.3.3-19.4a24.74,24.74,0,0,1,1.7-8.9,16.08,16.08,0,0,1,9.1-9.1,27.22,27.22,0,0,1,8.9-1.7,146.82,146.82,0,0,1,15.1-.3Zm29.9,7.9a5.8,5.8,0,1,0,5.8,5.8,5.8,5.8,0,0,0-5.8-5.8Zm-25.6,6.8a24.65,24.65,0,1,0,24.6,24.7,24.69,24.69,0,0,0-24.6-24.7Zm0,8.6a16,16,0,1,1-16,16A16,16,0,0,1,64.81,48.79Z" transform="translate(0.19 0.21)"></path></svg>