<svg xmlns="http://www.w3.org/2000/svg" xmlns:xlink="http://www.w3.org/1999/xlink" id="Capa_1" x="0px" y="0px" viewBox="0 0 612 161.4" style="enable-background:new 0 0 612 161.4;" xml:space="preserve"> <style type="text/css"> .st0{fill-rule:evenodd;clip-rule:evenodd;fill:#E4428C;} </style> <g> <g> <path class="st0" d="M32.3,20.2h8.8v90.1c0,0,0,6.5,5.8,6.5c5.4,0,47.3,0,47.3,0v9.8H42.8c0,0-10.5,0-10.5-11.6 C32.3,103.4,32.3,20.2,32.3,20.2L32.3,20.2L32.3,20.2z"></path> <path class="st0" d="M44.5,20.2h8.8v77.2c0,0-0.6,6,5.1,6c28.3,0,35.9,0,35.9,0v9.7H49.6c0,0-5.2-0.4-5.2-5.7 C44.5,103.6,44.5,20.2,44.5,20.2L44.5,20.2L44.5,20.2z"></path> <path class="st0" d="M56.6,20.2h8.8l0,65.3c0,0-0.5,4.4,3.7,4.4c7.5,0,25.2,0,25.2,0l0,9.7H60.3c0,0-3.8-0.7-3.8-5.3 C56.6,90.3,56.6,20.2,56.6,20.2L56.6,20.2L56.6,20.2z"></path> <path class="st0" d="M68.7,20.2h8.8V73c0,0-0.6,3.7,3.3,3.7c9.9,0,13.4,0,13.4,0v9.7H73.8c-3.6,0-5.1-1.1-5.1-4.8 C68.7,77.5,68.7,20.2,68.7,20.2L68.7,20.2L68.7,20.2z"></path> <path class="st0" d="M142.7,126.4h-8.8l0-90.1c0,0,0-6.5-5.8-6.5c-5.4,0-47.3,0-47.3,0v-9.8l51.5,0c0,0,10.5,0,10.5,11.6 C142.7,43.2,142.7,126.4,142.7,126.4L142.7,126.4L142.7,126.4z"></path> <path class="st0" d="M130.5,126.4h-8.8l0-77.2c0,0,0.6-6-5.1-6c-28.3,0-35.8,0-35.8,0l0-9.6l44.6,0c0,0,5.2,0.4,5.2,5.7 C130.5,43.1,130.5,126.4,130.5,126.4L130.5,126.4L130.5,126.4z"></path> <path class="st0" d="M118.4,126.4l-8.8,0l0-65.3c0,0,0.5-4.4-3.7-4.4c-7.5,0-25.2,0-25.2,0l0-9.7l33.9,0c0,0,3.8,0.8,3.8,5.3 C118.5,56.3,118.4,126.4,118.4,126.4L118.4,126.4L118.4,126.4z"></path> <path class="st0" d="M106.3,126.4h-8.8l0-52.7c0,0,0.5-3.7-3.3-3.7c-10,0-13.4,0-13.4,0v-9.7l20.4,0c3.6,0,5.1,1.1,5.1,4.8 C106.3,69.2,106.3,126.4,106.3,126.4L106.3,126.4L106.3,126.4z"></path> <polygon class="st0" points="232.1,42.2 241.2,42.2 241.2,52.3 232.1,52.3 232.1,42.2 "></polygon> <polygon class="st0" points="232.1,64.3 241.2,64.3 241.2,126.5 232.1,126.5 232.1,64.3 "></polygon> <polygon class="st0" points="551.6,42.1 560.6,42.1 560.6,126.5 551.6,126.5 551.6,42.1 "></polygon> <polygon class="st0" points="291.5,64.3 273.3,114.4 255.1,64.3 244.9,64.3 267.4,126.5 279.2,126.5 301.8,64.3 291.5,64.3 "></polygon> <path class="st0" d="M206.7,116.6c-3,0-5.3-2.7-5.3-6V42.2h-9v70.1c0,7.9,5.7,14.2,12.9,14.2h23.7v-9.8H206.7L206.7,116.6z"></path> <path class="st0" d="M377.8,74.3c-3,0-5.3,2.7-5.3,6v46.4h-9V78.7c0-7.8,5.7-14.2,12.9-14.2h9.5v9.8H377.8L377.8,74.3z"></path> <path class="st0" d="M358.6,96.1v-1.9c0-18-13.4-32.6-29.8-32.6c-16.4,0-29.8,14.6-29.8,32.6c0,17.9,13.3,32.5,29.8,32.5 c13.9,0,25.7-10.2,28.9-24.8H349c-3,9.4-11.1,15.7-20.2,15.7c-11.1,0-20.3-9.1-21.3-21.5H358.6L358.6,96.1z M308.5,87 c3-9.9,11.3-16.2,20.4-16.2c9.1,0,17.4,6.3,20.4,16.2H308.5L308.5,87z"></path> <path class="st0" d="M517,61.3c-10.8,0-20.3,6.3-25.6,15.6c-5.3-9.4-14.8-15.6-25.6-15.6c-10.8,0-20.3,6.3-25.6,15.6 c-5.3-9.4-14.8-15.6-25.6-15.6c-16.6,0-30.1,14.7-30.1,32.9c0,0.7,0,53.5,0,53.5h9.1v-29.9c5.4,5.8,12.8,9.3,21,9.3 c10.8,0,20.3-6.3,25.6-15.6c5.3,9.4,14.8,15.6,25.6,15.6c10.8,0,20.3-6.3,25.6-15.6c5.3,9.4,14.8,15.6,25.6,15.6 c16.6,0,30.1-14.7,30.1-32.9C547.1,76,533.7,61.3,517,61.3L517,61.3z M414.6,117.3c-11.6,0-21.1-10.3-21.1-23.1 c0-12.7,9.5-23.1,21.1-23.1c11.6,0,21.1,10.3,21.1,23.1C435.7,106.9,426.2,117.3,414.6,117.3L414.6,117.3z M465.8,117.3 c-11.6,0-21.1-10.3-21.1-23.1c0-12.7,9.5-23.1,21.1-23.1c11.6,0,21.1,10.3,21.1,23.1C486.9,106.9,477.5,117.3,465.8,117.3 L465.8,117.3z M517,117.3c-11.6,0-21.1-10.3-21.1-23.1c0-12.7,9.5-23.1,21.1-23.1c11.6,0,21.1,10.3,21.1,23.1 C538.2,106.9,528.7,117.3,517,117.3L517,117.3z"></path> <path class="st0" d="M571.8,56.9c-4,0-7.2-3.5-7.2-7.9c0-4.3,3.2-7.9,7.2-7.9c4,0,7.2,3.5,7.2,7.9C579,53.3,575.8,56.9,571.8,56.9 L571.8,56.9z M571.8,42.4c-3.3,0-6,2.9-6,6.5c0,3.6,2.7,6.6,6,6.6c3.3,0,6-3,6-6.6C577.8,45.4,575.1,42.4,571.8,42.4L571.8,42.4z M568.6,44.9h3.4c1.9,0,2.6,1.3,2.6,2.2c0,1.4-0.9,2.4-2.2,2.4v0c0.7,0.3,1.2,1,1.8,2.1l0.9,1.6h-1.5l-0.7-1.3 c-1-1.9-1.3-2.3-2.3-2.3h-0.7v3.6h-1.2V44.9L568.6,44.9z M571.7,48.6c1,0,1.6-0.4,1.6-1.3c0-0.8-0.6-1.2-1.4-1.2h-2v2.5H571.7 L571.7,48.6z"></path> </g> </g> </svg>